<svg width="71" height="63" viewBox="0 0 71 63" fill="none" xmlns="http://www.w3.org/2000/svg"><g transform="translate(0,0.00) scale(1)"><rect y="4" width="71" height="55" rx="8" fill="#0A0A0A"/><g><path d="M35.9759 45.234C33.9479 45.234 31.9979 44.909 30.1259 44.259C28.2799 43.583 26.8499 42.725 25.8359 41.685L26.9669 39.462C27.9289 40.398 29.2159 41.191 30.8279 41.841C32.4659 42.465 34.1819 42.777 35.9759 42.777C37.6919 42.777 39.0829 42.569 40.1489 42.153C41.2409 41.711 42.0339 41.126 42.5279 40.398C43.0479 39.67 43.3079 38.864 43.3079 37.98C43.3079 36.914 42.9959 36.056 42.3719 35.406C41.7739 34.756 40.9809 34.249 39.9929 33.885C39.0049 33.495 37.9129 33.157 36.7169 32.871C35.5209 32.585 34.3249 32.286 33.1289 31.974C31.9329 31.636 30.8279 31.194 29.8139 30.648C28.8259 30.102 28.0199 29.387 27.3959 28.503C26.7979 27.593 26.4989 26.41 26.4989 24.954C26.4989 23.602 26.8499 22.367 27.5519 21.249C28.2799 20.105 29.3849 19.195 30.8669 18.519C32.3489 17.817 34.2469 17.466 36.5609 17.466C38.0949 17.466 39.6159 17.687 41.1239 18.129C42.6319 18.545 43.9319 19.13 45.0239 19.884L44.0489 22.185C42.8789 21.405 41.6309 20.833 40.3049 20.469C39.0049 20.105 37.7439 19.923 36.5219 19.923C34.8839 19.923 33.5319 20.144 32.4659 20.586C31.3999 21.028 30.6069 21.626 30.0869 22.38C29.5929 23.108 29.3459 23.94 29.3459 24.876C29.3459 25.942 29.6449 26.8 30.2429 27.45C30.8669 28.1 31.6729 28.607 32.6609 28.971C33.6749 29.335 34.7799 29.66 35.9759 29.946C37.1719 30.232 38.3549 30.544 39.5249 30.882C40.7209 31.22 41.8129 31.662 42.8009 32.208C43.8149 32.728 44.6209 33.43 45.2189 34.314C45.8429 35.198 46.1549 36.355 46.1549 37.785C46.1549 39.111 45.7909 40.346 45.0629 41.49C44.3349 42.608 43.2169 43.518 41.7089 44.22C40.2269 44.896 38.3159 45.234 35.9759 45.234Z" fill="white"/><path d="M15.483 49.566V13.062H22.62V15.363H18.252V47.265H22.62V49.566H15.483ZM56.503 49.566H49.366V47.265H53.734V15.363H49.366V13.062H56.503V49.566Z" fill="white"/></g></g></svg>