<?xml version="1.0" encoding="UTF-8"?> <svg xmlns="http://www.w3.org/2000/svg" id="Laag_1" data-name="Laag 1" viewBox="0 0 619.23 128.6" width="619.23" height="128.6"><defs/><path fill="#bcc7d1" d="M54.75,22.71c-1.68-2.04-3.73-3.61-6.17-4.7-2.44-1.09-5.26-1.64-8.47-1.64s-6.17.62-8.91,1.86c-2.73,1.24-5.1,2.97-7.1,5.19-2,2.22-3.57,4.86-4.7,7.92-1.13,3.06-1.69,6.37-1.69,9.94s.56,6.98,1.69,10c1.13,3.02,2.68,5.65,4.64,7.87,1.97,2.22,4.28,3.95,6.94,5.19,2.66,1.24,5.52,1.86,8.58,1.86,3.5,0,6.59-.73,9.29-2.19,2.69-1.46,4.92-3.5,6.67-6.12l14.2,10.6c-3.28,4.59-7.43,7.98-12.46,10.16s-10.2,3.28-15.52,3.28c-6.05,0-11.62-.95-16.72-2.84-5.1-1.89-9.51-4.61-13.22-8.14-3.71-3.53-6.61-7.81-8.69-12.84S0,47.48,0,41.29s1.04-11.8,3.11-16.83,4.97-9.31,8.69-12.84c3.72-3.53,8.12-6.25,13.22-8.14,5.1-1.89,10.67-2.84,16.72-2.84,2.19,0,4.46.2,6.83.6,2.37.4,4.7,1.04,6.99,1.91,2.29.87,4.5,2.04,6.61,3.5,2.11,1.46,4.01,3.24,5.68,5.35l-13.11,10.71Z"></path><path fill="#bcc7d1" d="M79,2.61h29.94c3.93,0,7.67.38,11.2,1.15,3.53.76,6.63,2.04,9.29,3.82,2.66,1.79,4.77,4.19,6.34,7.21,1.57,3.02,2.35,6.79,2.35,11.31,0,5.46-1.42,10.11-4.26,13.93-2.84,3.82-6.99,6.25-12.46,7.27l19.67,32.67h-20.43l-16.17-30.92h-8.41v30.92h-17.05V2.61ZM96.05,34.62h10.05c1.53,0,3.15-.05,4.86-.16,1.71-.11,3.26-.44,4.64-.98,1.38-.55,2.53-1.4,3.44-2.57.91-1.16,1.37-2.8,1.37-4.92,0-1.97-.4-3.53-1.2-4.7-.8-1.16-1.82-2.06-3.06-2.68-1.24-.62-2.66-1.04-4.26-1.26-1.6-.22-3.17-.33-4.7-.33h-11.15v17.59Z"></path><path fill="#bcc7d1" d="M278.97,21.51c-1.38-1.75-3.26-3.04-5.63-3.88-2.37-.84-4.61-1.26-6.72-1.26-1.24,0-2.51.15-3.82.44-1.31.29-2.55.75-3.71,1.37-1.17.62-2.11,1.44-2.84,2.46-.73,1.02-1.09,2.26-1.09,3.71,0,2.33.87,4.12,2.62,5.35,1.75,1.24,3.95,2.3,6.61,3.17,2.66.87,5.52,1.75,8.58,2.62,3.06.87,5.92,2.11,8.58,3.72,2.66,1.6,4.86,3.75,6.61,6.45,1.75,2.7,2.62,6.3,2.62,10.82s-.8,8.05-2.4,11.25c-1.6,3.21-3.77,5.86-6.5,7.98-2.73,2.11-5.9,3.68-9.51,4.7-3.61,1.02-7.41,1.53-11.42,1.53-5.03,0-9.69-.76-13.99-2.29-4.3-1.53-8.3-4-12.02-7.43l12.13-13.33c1.75,2.33,3.95,4.14,6.61,5.41,2.66,1.28,5.41,1.91,8.25,1.91,1.38,0,2.79-.16,4.21-.49s2.69-.82,3.82-1.48c1.13-.66,2.04-1.49,2.73-2.51.69-1.02,1.04-2.22,1.04-3.61,0-2.33-.89-4.17-2.68-5.52-1.79-1.35-4.03-2.49-6.72-3.44-2.7-.95-5.61-1.89-8.74-2.84-3.13-.95-6.05-2.22-8.74-3.82-2.7-1.6-4.94-3.72-6.72-6.34-1.79-2.62-2.68-6.08-2.68-10.38s.82-7.79,2.46-10.93c1.64-3.13,3.82-5.75,6.56-7.87,2.73-2.11,5.88-3.7,9.45-4.75,3.57-1.06,7.25-1.59,11.04-1.59,4.37,0,8.59.62,12.68,1.86,4.08,1.24,7.76,3.32,11.04,6.23l-11.69,12.78Z"></path><path fill="#bcc7d1" d="M341.69,21.51c-1.39-1.75-3.26-3.04-5.63-3.88-2.37-.84-4.61-1.26-6.72-1.26-1.24,0-2.51.15-3.82.44-1.31.29-2.55.75-3.71,1.37-1.17.62-2.11,1.44-2.84,2.46-.73,1.02-1.09,2.26-1.09,3.71,0,2.33.87,4.12,2.62,5.35,1.75,1.24,3.95,2.3,6.61,3.17,2.66.87,5.52,1.75,8.58,2.62,3.06.87,5.92,2.11,8.58,3.72,2.66,1.6,4.86,3.75,6.61,6.45,1.75,2.7,2.62,6.3,2.62,10.82s-.8,8.05-2.4,11.25c-1.6,3.21-3.77,5.86-6.5,7.98-2.73,2.11-5.9,3.68-9.51,4.7s-7.41,1.53-11.42,1.53c-5.03,0-9.69-.76-13.99-2.29-4.3-1.53-8.3-4-12.02-7.43l12.13-13.33c1.75,2.33,3.95,4.14,6.61,5.41,2.66,1.28,5.41,1.91,8.25,1.91,1.38,0,2.79-.16,4.21-.49s2.69-.82,3.82-1.48c1.13-.66,2.04-1.49,2.73-2.51.69-1.02,1.04-2.22,1.04-3.61,0-2.33-.89-4.17-2.68-5.52-1.79-1.35-4.03-2.49-6.72-3.44-2.7-.95-5.61-1.89-8.74-2.84-3.13-.95-6.05-2.22-8.74-3.82-2.7-1.6-4.94-3.72-6.72-6.34-1.79-2.62-2.68-6.08-2.68-10.38s.82-7.79,2.46-10.93c1.64-3.13,3.82-5.75,6.56-7.87,2.73-2.11,5.88-3.7,9.45-4.75,3.57-1.06,7.25-1.59,11.04-1.59,4.37,0,8.59.62,12.68,1.86,4.08,1.24,7.76,3.32,11.04,6.23l-11.69,12.78Z"></path><path fill="#20f5d1" d="M366.82,2.61h17.04v61.63h31.58v15.74h-48.62V2.61Z"></path><path fill="#20f5d1" d="M424.62,2.61h17.05v77.36h-17.05V2.61Z"></path><path fill="#20f5d1" d="M457.18,2.61h23.17l32.89,53.76h.22V2.61h17.05v77.36h-22.29l-33.76-55.07h-.22v55.07h-17.05V2.61Z"></path><path fill="#20f5d1" d="M546.9,2.61h17.04v32.13l30.05-32.13h22.29l-34.42,35.95,37.37,41.41h-23.82l-31.47-36.71v36.71h-17.04V2.61Z"></path><path fill="#bcc7d1" d="M207.81,76.88c-1.19.58-2.42,1.1-3.69,1.57-5.1,1.89-10.67,2.84-16.72,2.84s-11.62-.95-16.72-2.84c-5.1-1.89-9.51-4.61-13.22-8.14-3.71-3.53-6.61-7.81-8.69-12.84s-3.11-10.64-3.11-16.83,1.04-11.8,3.11-16.83,4.97-9.31,8.69-12.84c3.72-3.53,8.12-6.25,13.22-8.14,5.1-1.89,10.67-2.84,16.72-2.84s11.62.95,16.72,2.84c1.15.43,2.26.89,3.34,1.4l-12.51,12.52c-2.32-.68-4.84-1.02-7.54-1.02-3.64,0-6.94.62-9.89,1.86-2.95,1.24-5.48,2.97-7.59,5.19-2.11,2.22-3.73,4.86-4.86,7.92-1.13,3.06-1.69,6.37-1.69,9.94s.56,6.98,1.69,10c1.13,3.02,2.75,5.65,4.86,7.87,2.11,2.22,4.64,3.95,7.59,5.19,2.95,1.24,6.25,1.86,9.89,1.86,2.71,0,5.22-.34,7.54-1.02l12.87,12.34Z"></path><path fill="#20f5d1" d="M217.34,10.98c3.71,3.53,6.61,7.81,8.69,12.84,2.08,5.03,3.11,10.64,3.11,16.83s-1.04,11.8-3.11,16.83c-2.08,5.03-4.97,9.31-8.69,12.84l-12.46-11.8c2.11-2.22,3.73-4.84,4.86-7.87,1.13-3.02,1.69-6.35,1.69-10s-.56-6.88-1.69-9.94c-1.13-3.06-2.75-5.7-4.86-7.92l12.46-11.8Z"></path><g><path fill="#bcc7d1" d="M438.76,98.51h4.02v26.49h23.05v3.28h-27.07v-29.77Z"></path><path fill="#bcc7d1" d="M470.11,128.28v-29.77h28.99v3.28h-24.97v9.56h23.97v3.28h-23.97v10.36h25.15v3.28h-29.17Z"></path><path fill="#bcc7d1" d="M522.79,116.83v-3.28h19.21v4.58c0,3.71-.76,6.38-2.28,8.02-1.52,1.63-4.18,2.44-7.98,2.44h-16.27c-3.85,0-6.62-.84-8.28-2.52s-2.5-4.52-2.5-8.52v-8.76c.07-3.84.93-6.57,2.6-8.18,1.68-1.61,4.46-2.42,8.34-2.42h14.79c7.51,0,11.26,2.72,11.26,8.16v1.12h-3.76c0-2.59-.6-4.24-1.82-4.94-1.2-.71-4.01-1.06-8.43-1.06h-11.78c-2.59,0-4.44.52-5.54,1.56-1.09,1.03-1.64,2.68-1.64,4.96v10.42c0,2.4.51,4.16,1.52,5.26,1.03,1.09,2.92,1.64,5.68,1.64h15.33c2.31,0,4.01-.43,5.1-1.28,1.09-.87,1.64-2.33,1.64-4.38v-2.82h-15.19Z"></path><path fill="#bcc7d1" d="M545.64,128.28l17.61-29.77h5.02l17.61,29.77h-4.52l-3.78-6.36h-23.63l-3.78,6.36h-4.52ZM555.83,118.63h19.87l-9.94-16.87-9.92,16.87Z"></path><path fill="#bcc7d1" d="M590.46,98.51h4.02v26.49h23.05v3.28h-27.07v-29.77Z"></path></g></svg> 