<?xml version="1.0"?>
<svg width="495.75pt" height="113.25pt" viewBox="0 0 2560 586" xmlns="http://www.w3.org/2000/svg">
<path fill="#000" d=" M 101.38 28.32 C 139.19 7.57 183.36 1.21 226.00 3.55 C 250.11 4.76 274.16 8.92 296.92 17.06 C 326.78 27.70 354.28 46.03 373.72 71.27 C 393.26 96.18 404.88 126.65 409.56 157.81 C 412.45 176.63 412.91 195.72 412.66 214.72 C 370.96 214.78 329.26 214.66 287.57 214.78 C 287.61 195.35 287.15 175.35 279.98 157.01 C 274.55 142.56 264.40 129.81 250.95 122.09 C 237.90 114.89 222.78 112.05 207.98 112.17 C 197.71 112.43 187.18 113.49 177.71 117.77 C 167.12 122.39 157.76 130.68 153.52 141.60 C 147.13 157.59 147.45 177.02 157.35 191.54 C 165.77 203.51 179.35 210.47 192.85 215.17 C 222.61 225.05 252.33 235.05 282.07 244.98 C 311.24 254.96 340.05 267.40 364.63 286.31 C 387.22 303.41 404.94 327.26 413.47 354.38 C 420.73 377.74 422.79 402.53 420.86 426.86 C 419.46 443.72 416.52 460.56 410.65 476.47 C 400.24 505.11 381.51 530.85 356.68 548.64 C 325.69 571.44 287.56 582.48 249.62 586.00 L 189.34 586.00 C 173.58 583.83 157.74 581.75 142.40 577.37 C 107.11 568.07 73.37 549.46 50.25 520.75 C 32.71 499.27 21.39 473.17 15.84 446.11 C 13.51 435.22 12.25 424.15 11.23 413.08 C 10.49 401.14 10.98 389.16 10.86 377.20 C 52.82 377.20 94.77 377.19 136.72 377.21 C 136.59 393.82 136.89 410.79 142.11 426.73 C 147.10 443.01 157.60 457.91 172.33 466.72 C 189.22 476.98 209.58 479.62 229.01 478.69 C 243.40 477.86 258.36 474.10 269.53 464.53 C 279.75 455.86 284.70 442.25 284.82 429.08 C 284.94 416.82 281.95 403.79 273.21 394.72 C 261.76 382.49 245.37 376.99 229.78 372.17 C 207.71 365.11 185.54 358.31 163.42 351.38 C 151.26 347.41 138.94 343.85 127.04 339.13 C 100.66 329.16 75.45 314.74 55.92 294.14 C 41.61 279.11 31.22 260.59 24.83 240.90 C 19.36 224.18 17.11 206.58 16.32 189.06 C 14.96 155.75 21.11 121.64 37.14 92.19 C 51.78 65.26 74.43 42.87 101.38 28.32 Z" />
<path fill="#000" d=" M 1016.97 5.54 C 1046.45 1.66 1076.56 2.45 1105.84 7.60 C 1128.44 11.71 1150.59 19.04 1170.61 30.41 C 1200.16 46.89 1224.06 73.09 1238.12 103.83 C 1254.33 138.28 1258.20 177.09 1257.06 214.73 C 1215.38 214.74 1173.70 214.72 1132.02 214.74 C 1132.21 196.39 1131.74 177.60 1125.61 160.10 C 1120.48 144.83 1110.45 130.83 1096.37 122.67 C 1081.00 113.66 1062.59 111.28 1045.06 112.51 C 1030.12 113.52 1014.47 118.77 1004.66 130.62 C 993.08 145.04 990.98 165.68 997.21 182.82 C 1002.07 195.67 1013.51 204.68 1025.60 210.40 C 1035.33 214.97 1045.78 217.69 1055.86 221.36 C 1071.80 226.68 1087.75 231.99 1103.70 237.30 C 1121.22 243.23 1138.91 248.78 1155.91 256.12 C 1185.83 268.70 1214.65 286.15 1235.22 311.70 C 1247.23 326.74 1255.67 344.49 1260.53 363.08 C 1264.72 379.01 1265.97 395.56 1266.01 411.99 C 1265.90 434.82 1262.26 457.75 1254.14 479.13 C 1243.31 508.35 1223.03 533.75 1197.42 551.40 C 1167.23 572.31 1130.87 582.44 1094.65 586.00 L 1037.52 586.00 C 1005.60 582.98 973.52 576.13 944.98 561.04 C 914.19 545.27 888.70 519.18 874.25 487.69 C 857.95 453.41 854.41 414.70 855.26 377.21 C 897.26 377.19 939.26 377.20 981.26 377.20 C 980.96 396.50 981.75 416.45 989.48 434.44 C 995.66 449.37 1007.11 462.14 1021.62 469.37 C 1038.63 477.89 1058.19 479.87 1076.95 478.42 C 1090.98 477.17 1105.51 472.87 1115.87 462.88 C 1125.93 453.23 1130.02 438.72 1129.28 425.07 C 1128.72 415.15 1126.27 404.89 1119.79 397.10 C 1110.71 385.90 1097.10 379.71 1083.72 375.25 C 1055.43 365.88 1026.83 357.44 998.43 348.40 C 973.63 340.58 948.90 331.36 927.26 316.67 C 899.90 298.78 878.48 271.48 869.12 240.03 C 858.33 204.17 857.99 165.34 867.06 129.07 C 875.98 95.22 895.85 64.06 923.80 42.80 C 950.61 21.99 983.55 10.15 1016.97 5.54 Z" />
<path fill="#000" d=" M 1974.70 11.57 C 2023.71 11.17 2072.74 11.50 2121.76 11.45 C 2121.81 65.63 2121.76 119.80 2121.77 173.98 C 2121.98 223.51 2121.28 273.05 2122.15 322.58 C 2167.78 276.36 2214.00 230.74 2259.96 184.84 C 2317.96 126.98 2375.96 69.11 2433.94 11.23 C 2470.25 47.45 2506.46 83.77 2542.74 120.03 C 2451.03 211.57 2359.26 303.04 2267.54 394.56 C 2254.90 406.94 2242.72 419.77 2229.75 431.80 C 2333.98 432.41 2438.21 431.99 2542.44 432.12 C 2542.50 481.10 2542.48 530.08 2542.47 579.06 C 2353.23 579.07 2164.00 579.07 1974.76 579.06 C 1974.69 389.89 1974.86 200.73 1974.70 11.57 Z" />
<path fill="#000" d=" M 408.15 13.87 C 458.46 13.87 508.77 13.85 559.08 13.89 C 584.85 63.46 610.62 113.04 636.39 162.62 C 637.89 165.44 639.18 168.39 641.05 171.00 C 642.87 168.70 644.00 165.98 645.38 163.41 C 671.28 113.57 697.19 63.72 723.09 13.88 C 771.35 13.88 819.60 13.85 867.85 13.81 C 816.24 104.20 764.03 194.25 712.63 284.76 C 768.12 381.88 823.39 479.13 878.65 576.39 C 828.36 576.52 778.06 576.21 727.77 576.36 C 721.63 566.00 716.20 555.21 710.35 544.69 C 685.10 498.18 659.81 451.70 634.51 405.23 C 634.27 405.20 633.78 405.13 633.54 405.10 C 602.99 462.17 572.53 519.29 542.03 576.39 C 493.48 576.41 444.94 576.41 396.40 576.39 C 451.72 480.53 507.07 384.69 562.40 288.83 C 518.79 211.06 475.09 133.33 431.45 55.57 C 423.71 41.66 415.74 27.87 408.15 13.87 Z" />
<path fill="#000" d=" M 1271.74 13.88 C 1318.49 13.86 1365.25 13.86 1412.00 13.88 C 1431.64 134.40 1451.28 254.92 1471.00 375.43 C 1472.17 375.35 1473.33 375.14 1474.49 374.79 C 1492.14 254.44 1510.15 134.14 1527.95 13.81 C 1569.63 13.77 1611.31 13.84 1653.00 13.78 C 1654.14 14.08 1656.72 12.95 1656.76 14.93 C 1674.55 135.09 1692.40 255.24 1710.14 375.40 C 1711.31 375.11 1713.75 376.06 1713.71 374.05 C 1732.63 258.52 1751.50 142.98 1770.31 27.44 C 1771.31 22.99 1771.29 18.11 1772.85 13.91 C 1816.48 13.78 1860.11 13.94 1903.74 13.84 C 1886.33 108.45 1868.36 202.97 1850.74 297.55 C 1833.27 390.51 1816.02 483.51 1798.41 576.44 C 1746.35 576.33 1694.28 576.45 1642.21 576.38 C 1624.66 456.13 1607.08 335.87 1589.51 215.62 C 1588.68 215.66 1587.00 215.73 1586.16 215.76 C 1568.49 335.96 1550.96 456.19 1533.37 576.41 C 1481.27 576.38 1429.18 576.42 1377.09 576.39 C 1341.97 388.88 1306.84 201.38 1271.74 13.88 Z" />
<path fill="#000" d=" M 1867.14 519.28 C 1879.31 516.03 1893.53 521.05 1900.19 531.94 C 1908.98 545.35 1904.99 565.74 1891.01 574.03 C 1877.50 582.87 1857.02 578.24 1849.18 563.97 C 1842.24 552.39 1844.40 536.43 1853.82 526.87 C 1857.41 523.11 1862.17 520.67 1867.14 519.28 M 1869.15 524.21 C 1854.26 527.18 1846.41 545.71 1852.83 558.99 C 1856.49 568.06 1866.36 573.70 1875.99 573.36 C 1883.94 573.11 1891.73 568.66 1895.68 561.69 C 1901.45 552.13 1900.34 538.69 1892.34 530.71 C 1886.40 524.78 1877.30 522.11 1869.15 524.21 Z" />
<path fill="#000" d=" M 1862.28 532.38 C 1869.60 532.76 1877.14 531.49 1884.28 533.65 C 1891.46 536.08 1891.66 548.45 1883.96 550.36 C 1889.31 552.76 1888.81 559.38 1889.65 564.23 C 1886.82 564.15 1884.01 564.05 1881.22 563.92 C 1880.59 560.90 1880.52 557.68 1879.15 554.88 C 1876.70 552.83 1873.24 553.83 1870.35 553.64 C 1870.33 557.09 1870.35 560.54 1870.36 564.00 C 1867.65 564.08 1864.95 564.09 1862.26 564.03 C 1862.27 553.48 1862.23 542.93 1862.28 532.38 M 1870.38 539.05 C 1870.34 541.81 1870.33 544.57 1870.36 547.34 C 1873.34 547.20 1876.61 547.76 1879.41 546.38 C 1881.99 545.15 1881.75 540.89 1879.12 539.85 C 1876.37 538.67 1873.26 539.18 1870.38 539.05 Z" />
</svg>
